<svg width="505" height="95" viewBox="0 0 505 95" fill="none" xmlns="http://www.w3.org/2000/svg">
	<path fill-rule="evenodd" clip-rule="evenodd"
		d="M268.073 5.5116H292.073V65.5116H333.073V88.0116H268.073V5.5116ZM446.073 5.5116H417.573L446.573 46.7616L417.573 88.0116H446.073L460.823 67.031L475.573 88.0116H504.073L475.073 46.7616L504.073 5.5116H475.573L460.823 26.4922L446.073 5.5116ZM183.023 88.0117H232.016C248.569 88.0117 256.403 74.4291 256.403 64.103C256.403 52.7662 249.204 45.811 246.102 44.4674C248.157 42.9611 253.563 37.1978 253.563 28.2345C253.563 18.4374 246.209 5.57166 229.828 5.57166H183.023V88.0117ZM206.183 38.0362V24.5562H224.323C228.573 24.5562 231.073 27.9362 231.063 31.2962C231.053 34.6562 228.573 38.0362 224.323 38.0362H206.183ZM206.183 69.4517V55.2517H226.985C231.263 55.2517 233.903 58.8141 233.903 62.3517C233.903 65.8892 231.109 69.4517 226.985 69.4517H206.183ZM58.724 59.8055L77.8999 88.0117H51.3799L33.2462 61.0473H23.2799V88.0117H-0.00012207V5.57166H43.218C59.5119 5.57166 73.0399 17.3307 73.0399 33.8717C73.0399 44.4686 67.9763 54.471 58.724 59.8055ZM40.8685 26.6917H23.2799V42.0517H40.8685C45.8897 42.0517 49.0399 38.3236 49.0399 34.3717C49.0399 30.4197 46.118 26.6917 40.8685 26.6917Z"
		fill="white" />
	<rect x="79.4999" y="19.9291" width="77" height="20" transform="rotate(-15 79.4999 19.9291)" fill="white" />
	<rect x="94.2526" y="74.9867" width="77" height="20" transform="rotate(-15 94.2526 74.9867)" fill="white" />
	<rect x="86.8762" y="47.4579" width="59" height="20" transform="rotate(-15 86.8762 47.4579)" fill="white" />
	<circle cx="379.25" cy="46.7512" r="30" stroke="white" stroke-width="22.5" />
</svg>