<svg width="12" height="12" viewBox="0 0 12 12" fill="none" xmlns="http://www.w3.org/2000/svg">
<g clip-path="url(#clip0_1302_30)">
<path d="M11.3126 7.4235C11.031 8.47424 10.4443 9.41788 9.6264 10.1351C8.80855 10.8524 7.79639 11.311 6.71789 11.4529C5.6394 11.5949 4.54303 11.4139 3.56741 10.9328C2.5918 10.4517 1.78076 9.69206 1.23686 8.75" stroke="white"/>
<path d="M3.67874 7.32129H0V11L3.67874 7.32129Z" fill="white"/>
<path d="M0.687408 4.57649C0.968951 3.52576 1.55575 2.58211 2.3736 1.86488C3.19145 1.14765 4.20362 0.689039 5.28211 0.547053C6.3606 0.405067 7.45697 0.58608 8.43259 1.0672C9.4082 1.54832 10.2192 2.30794 10.7631 3.25" stroke="white"/>
<path d="M8.32428 4.67572L12 4.67572V1L8.32428 4.67572Z" fill="white"/>
</g>
<defs>
<clipPath id="clip0_1302_30">
<rect width="12" height="12" fill="white"/>
</clipPath>
</defs>
</svg>
